<svg version="1" xmlns="http://www.w3.org/2000/svg" width="600" height="600" viewBox="0 0 450.000000 450.000000"><path d="M218 11.6c-9.4 4-12.4 12.9-14.5 42.4-.4 4.7-.8 10.1-1 12-.2 1.9-.6 7.1-1 11.5-.3 4.4-.8 9.8-1 12-.2 2.2-.6 7.1-1 11-.3 3.8-.8 9-1 11.5-.7 6.5-1.9 23.1-3 41-.3 5.2-.8 11.5-1 14-.2 2.5-.7 7.6-1 11.5-.7 7.4-1.3 13.6-2 19.8-.9 7.7-4.6 10-7.3 4.5-1.4-3.1-4.7-19.4-5.7-28.4-.3-3.2-.8-7-1-8.4-.3-2.3-1.1-12.1-2.1-26-.6-8.4-1.3-23-1.9-39-2-54.7-2.7-61.2-7.5-68-3.2-4.6-7.4-6.3-13.7-5.8-6.7.6-10.7 4.1-13.4 11.9-1.7 5-1.8 7.7-1.3 36.4 1.4 66 .8 138.2-1.1 143.7-.2.7-.6 2.8-.9 4.6-.5 4.1-.8 4.4-2.9 3.6-3-1.1-7-14.2-9.7-32.4-.5-3.6-1.2-7.4-1.4-8.5-.2-1.1-.7-4.5-1-7.6-.4-3.1-.8-6.5-1-7.5-.2-1.1-.7-5-1.1-8.7-.3-3.7-.8-7.6-1-8.5-.1-.9-.6-4.6-1-8.2-.3-3.6-.8-7.2-1-8-.2-.8-.6-4.2-1-7.5-.3-3.3-1-8.7-1.6-12-.5-3.3-1.2-7.4-1.4-9.2-1.3-8.7-5.7-13.3-12.9-13.3-2.3 0-4.5.9-6.6 2.6-5 4.2-6.1 8.2-6.2 22.9-.1 11.4.9 59.5 1.7 83.5 1.6 46.9 1.5 44.4 3 69 .4 5.2.8 12.4 1 16 .8 15.7 3.5 36.6 7 55.5 3.7 19.8 12.5 41.1 21.9 53.3 10.4 13.3 32.7 26.1 52.8 30.1 10.2 2 12.4 2.3 24.8 2.5 46.9 1.1 82.4-15.4 112.5-52.4 11.1-13.7 23.2-37.1 36.6-70.8 2.7-7 5.4-13.6 5.9-14.7 1.4-2.8 14.1-36.7 14.5-38.5.2-.8 1.5-4.8 3-8.9 6-16.9.6-29.1-12.9-29.1-12.6 0-21.8 10.4-31.3 35.5-1.9 4.9-3.6 9.7-3.8 10.5-2.9 12.3-17.9 46.2-26 59-3.3 5.3-3.5 5.4-3.5 2.5-.1-7-8.4-10.9-14.5-6.9-2.7 1.7-3.1 1.4-1.5-1.4 3.5-6.4 7.3-22.3 8.5-35.7.3-3.9.8-9 1-11.5.4-4.7 1.5-22.1 2-32.5.3-5.5.9-18.8 2-44 .3-5.5.7-17 1-25.5 1-29.5 1.5-43.5 2-53 2.1-35.8 1.2-47.2-4.1-55.3-5.9-8.9-16.6-8.3-23.2 1.3-3.8 5.6-5.4 12.9-6.8 30-.3 4.7-.8 8.7-.9 9-.2.3-.6 4.2-1 8.5-.3 4.4-.8 9.1-1 10.5-.4 2.5-1.2 11.6-2 22.5-1.4 19.3-3.4 39.9-4 42.5-.3.8-.7 3.1-1 5-.3 1.9-.8 4.7-1 6.1-2.2 12.6-9.9 21.3-12.6 14.1-2.1-5.5.2-139.1 2.7-157.7 1.5-10.9 0-26.5-3.1-32.5-3.2-6.2-11.1-9.1-17.5-6.4z"/></svg>