<?xml version="1.0" standalone="no"?>
<!DOCTYPE svg PUBLIC "-//W3C//DTD SVG 20010904//EN"
 "http://www.w3.org/TR/2001/REC-SVG-20010904/DTD/svg10.dtd">
<svg version="1.0" xmlns="http://www.w3.org/2000/svg"
 width="450.000000pt" height="450.000000pt" viewBox="0 0 450.000000 450.000000"
 preserveAspectRatio="xMidYMid meet">
<metadata>
Created by potrace 1.11, written by Peter Selinger 2001-2013
</metadata>
<g transform="translate(0.000000,450.000000) scale(0.100000,-0.100000)"
fill="#000000" stroke="none">
<path d="M2180 4384 c-94 -40 -124 -129 -145 -424 -4 -47 -8 -101 -10 -120 -2
-19 -6 -71 -10 -115 -3 -44 -8 -98 -10 -120 -2 -22 -6 -71 -10 -110 -3 -38 -8
-90 -10 -115 -7 -65 -19 -231 -30 -410 -3 -52 -8 -115 -10 -140 -2 -25 -7 -76
-10 -115 -7 -74 -13 -136 -20 -198 -9 -77 -46 -100 -73 -45 -14 31 -47 194
-57 284 -3 32 -8 70 -10 84 -3 23 -11 121 -21 260 -6 84 -13 230 -19 390 -20
547 -27 612 -75 680 -32 46 -74 63 -137 58 -67 -6 -107 -41 -134 -119 -17 -50
-18 -77 -13 -364 14 -660 8 -1382 -11 -1437 -2 -7 -6 -28 -9 -46 -5 -41 -8
-44 -29 -36 -30 11 -70 142 -97 324 -5 36 -12 74 -14 85 -2 11 -7 45 -10 76
-4 31 -8 65 -10 75 -2 11 -7 50 -11 87 -3 37 -8 76 -10 85 -1 9 -6 46 -10 82
-3 36 -8 72 -10 80 -2 8 -6 42 -10 75 -3 33 -10 87 -16 120 -5 33 -12 74 -14
92 -13 87 -57 133 -129 133 -23 0 -45 -9 -66 -26 -50 -42 -61 -82 -62 -229 -1
-114 9 -595 17 -835 16 -469 15 -444 30 -690 4 -52 8 -124 10 -160 8 -157 35
-366 70 -555 37 -198 125 -411 219 -533 104 -133 327 -261 528 -301 102 -20
124 -23 248 -25 469 -11 824 154 1125 524 111 137 232 371 366 708 27 70 54
136 59 147 14 28 141 367 145 385 2 8 15 48 30 89 60 169 6 291 -129 291 -126
0 -218 -104 -313 -355 -19 -49 -36 -97 -38 -105 -29 -123 -179 -462 -260 -590
-33 -53 -35 -54 -35 -25 -1 70 -84 109 -145 69 -27 -17 -31 -14 -15 14 35 64
73 223 85 357 3 39 8 90 10 115 4 47 15 221 20 325 3 55 9 188 20 440 3 55 7
170 10 255 10 295 15 435 20 530 21 358 12 472 -41 553 -59 89 -166 83 -232
-13 -38 -56 -54 -129 -68 -300 -3 -47 -8 -87 -9 -90 -2 -3 -6 -42 -10 -85 -3
-44 -8 -91 -10 -105 -4 -25 -12 -116 -20 -225 -14 -193 -34 -399 -40 -425 -3
-8 -7 -31 -10 -50 -3 -19 -8 -47 -10 -61 -22 -126 -99 -213 -126 -141 -21 55
2 1391 27 1577 15 109 0 265 -31 325 -32 62 -111 91 -175 64z"/>
</g>
</svg>
